# xmcd
#
# Track frame offsets: 
#        150
#        16665
#        32513
#        51387
#        67665
#        87111
#        103594
#        121004
#        136522
#        156193
#        172515
#
# Disc length: 2528 seconds
#
# Revision: 1
# Processed by: cddbd v1.5.2PL0 Copyright (c) Steve Scherf et al.
# Submitted via: ExactAudioCopy v1.3
#
DISCID=6d09de0b
DTITLE=Kenny Rogers - Icon
DYEAR=2013
DGENRE=Country
TTITLE0=Lucille
TTITLE1=The Gambler
TTITLE2=She Believes In Me
TTITLE3=You Decorated My Life
TTITLE4=Coward Of The County
TTITLE5=Don't Fall In Love With A Dreamer
TTITLE6=Lady
TTITLE7=Don't Need You
TTITLE8=Through The Years
TTITLE9=Love Will Turn You Around
TTITLE10=We've Got Tonight
EXTD=
EXTT0=
EXTT1=
EXTT2=
EXTT3=
EXTT4=
EXTT5=
EXTT6=
EXTT7=
EXTT8=
EXTT9=
EXTT10=
PLAYORDER=
